<svg width="249" height="46" viewBox="0 0 249 46" fill="none" xmlns="http://www.w3.org/2000/svg">
<g clip-path="url(#clip0_1161_8351)">
<path d="M92.8488 20.8508L91.3872 17.2365H83.9297L82.4382 20.8508H78.7344L86.0402 3.91748H89.2444L96.5527 20.8508H92.8488ZM87.656 8.08868L85.1875 14.1292H90.0995L87.656 8.08868Z" fill="#110C11"/>
<path d="M105.366 20.8508H102.065L94.7812 3.91748H98.5622L103.703 16.2521L108.873 3.91748H112.654L105.366 20.8508Z" fill="#110C11"/>
<path d="M124.521 20.8508L123.059 17.2365H115.602L114.11 20.8508H110.406L117.715 3.91748H120.914L128.222 20.8508H124.521ZM119.33 8.08868L116.859 14.1292H121.774L119.33 8.08868Z" fill="#110C11"/>
<path d="M143.141 20.8508H131V3.91748H134.425V17.7436H143.146L143.141 20.8508Z" fill="#110C11"/>
<path d="M159.624 6.11764C160.463 6.93361 161.125 7.91302 161.57 8.99524C162.014 10.0775 162.232 11.2394 162.209 12.4092C162.231 13.5737 162.013 14.7302 161.568 15.8067C161.123 16.8831 160.462 17.8564 159.624 18.666C157.935 20.3111 155.671 21.2317 153.313 21.2317C150.955 21.2317 148.69 20.3111 147.001 18.666C146.165 17.8559 145.505 16.8823 145.061 15.8059C144.618 14.7294 144.401 13.5732 144.423 12.4092C144.434 10.6522 144.963 8.93732 145.943 7.47946C146.924 6.0216 148.313 4.88561 149.937 4.21383C151.561 3.54206 153.346 3.36437 155.07 3.70303C156.795 4.04169 158.38 4.88164 159.629 6.11764H159.624ZM157.181 16.4064C157.699 15.8814 158.106 15.2568 158.377 14.5702C158.648 13.8837 158.777 13.1495 158.757 12.4117C158.776 11.6707 158.647 10.9333 158.376 10.2433C158.105 9.55326 157.699 8.92461 157.181 8.39465C156.675 7.88206 156.073 7.47503 155.409 7.19721C154.745 6.91939 154.033 6.77633 153.313 6.77633C152.593 6.77633 151.88 6.91939 151.216 7.19721C150.552 7.47503 149.95 7.88206 149.445 8.39465C148.927 8.92461 148.52 9.55326 148.249 10.2433C147.979 10.9333 147.849 11.6707 147.869 12.4117C147.848 13.1495 147.977 13.8837 148.248 14.5702C148.519 15.2568 148.926 15.8814 149.445 16.4064C150.474 17.4253 151.864 17.9969 153.313 17.9969C154.761 17.9969 156.151 17.4253 157.181 16.4064V16.4064Z" fill="#110C11"/>
<path d="M180.473 20.8508H177.592L168.243 9.98287V20.8508H164.812V3.91748H167.686L177.038 15.0887V3.91748H180.473V20.8508Z" fill="#110C11"/>
<path d="M78.7344 42.0823V25.1489H82.1598V42.0823H78.7344Z" fill="#110C11"/>
<path d="M101.359 42.0824H98.488L89.1389 31.2144V42.0824H85.7109V25.149H88.5845L97.9411 36.3203V25.149H101.367L101.359 42.0824Z" fill="#110C11"/>
<path d="M120.601 42.0823H117.73L108.381 31.2143V42.0823H104.953V25.1489H107.827L117.176 36.3202V25.1489H120.601V42.0823Z" fill="#110C11"/>
<path d="M138.505 27.3439C140.16 29.0129 141.088 31.268 141.088 33.6181C141.088 35.9683 140.16 38.2233 138.505 39.8923C136.816 41.537 134.551 42.4572 132.193 42.4572C129.835 42.4572 127.57 41.537 125.88 39.8923C124.225 38.2233 123.297 35.9683 123.297 33.6181C123.297 31.268 124.225 29.0129 125.88 27.3439C127.565 25.6899 129.832 24.7632 132.193 24.7632C134.554 24.7632 136.82 25.6899 138.505 27.3439V27.3439ZM136.062 37.6302C136.581 37.1055 136.988 36.4809 137.258 35.7942C137.529 35.1076 137.657 34.3732 137.635 33.6355C137.656 32.8947 137.527 32.1573 137.257 31.4672C136.986 30.7771 136.58 30.1484 136.062 29.6185C135.556 29.1059 134.954 28.6989 134.29 28.421C133.626 28.1432 132.914 28.0001 132.194 28.0001C131.474 28.0001 130.761 28.1432 130.097 28.421C129.433 28.6989 128.831 29.1059 128.326 29.6185C127.807 30.1479 127.4 30.7765 127.129 31.4667C126.858 32.1568 126.729 32.8944 126.75 33.6355C126.728 34.3734 126.857 35.1081 127.128 35.7948C127.399 36.4815 127.806 37.106 128.326 37.6302C129.355 38.6491 130.745 39.2207 132.194 39.2207C133.642 39.2207 135.032 38.6491 136.062 37.6302Z" fill="#110C11"/>
<path d="M151.738 42.0823H148.437L141.156 25.1489H144.927L150.068 37.4835L155.236 25.1489H159.014L151.738 42.0823Z" fill="#110C11"/>
<path d="M171.364 42.0823L169.903 38.4679H162.445L160.954 42.0823H157.25L164.556 25.1489H167.755L175.063 42.0823H171.364ZM166.172 29.3326L163.703 35.3731H168.618L166.172 29.3326Z" fill="#110C11"/>
<path d="M182.171 28.2587V42.0823H178.743V28.2587H173.125V25.1489H187.791V28.2587H182.171Z" fill="#110C11"/>
<path d="M189.734 42.0823V25.1489H193.162V42.0823H189.734Z" fill="#110C11"/>
<path d="M211.068 27.3439C212.722 29.0129 213.651 31.268 213.651 33.6181C213.651 35.9683 212.722 38.2233 211.068 39.8923C209.378 41.537 207.113 42.4572 204.755 42.4572C202.397 42.4572 200.132 41.537 198.442 39.8923C196.788 38.2233 195.859 35.9683 195.859 33.6181C195.859 31.268 196.788 29.0129 198.442 27.3439C200.127 25.6899 202.394 24.7632 204.755 24.7632C207.116 24.7632 209.383 25.6899 211.068 27.3439ZM208.624 37.6302C209.143 37.1055 209.55 36.4809 209.821 35.7942C210.091 35.1076 210.219 34.3732 210.198 33.6355C210.218 32.8947 210.089 32.1573 209.819 31.4672C209.549 30.7771 209.142 30.1484 208.624 29.6185C208.119 29.1059 207.517 28.6989 206.853 28.421C206.189 28.1432 205.476 28.0001 204.756 28.0001C204.037 28.0001 203.324 28.1432 202.66 28.421C201.996 28.6989 201.394 29.1059 200.888 29.6185C200.369 30.1479 199.962 30.7765 199.692 31.4667C199.421 32.1568 199.292 32.8944 199.312 33.6355C199.291 34.3734 199.419 35.1081 199.69 35.7948C199.961 36.4815 200.369 37.106 200.888 37.6302C201.918 38.6491 203.308 39.2207 204.756 39.2207C206.205 39.2207 207.595 38.6491 208.624 37.6302V37.6302Z" fill="#110C11"/>
<path d="M232.008 42.0823H229.136L219.787 31.2143V42.0823H216.359V25.1489H219.245L228.595 36.3202V25.1489H232.02L232.008 42.0823Z" fill="#110C11"/>
<path d="M246.033 26.0836C247.228 26.9334 248.05 28.2095 248.33 29.6482L244.902 30.3542C244.854 29.9786 244.73 29.6166 244.54 29.2892C244.35 28.9619 244.096 28.6757 243.794 28.4476C243.158 27.9623 242.376 27.7081 241.576 27.7267C240.863 27.6927 240.16 27.907 239.588 28.3332C239.355 28.5059 239.167 28.7309 239.037 28.99C238.907 29.2491 238.841 29.535 238.842 29.8247C238.842 30.7511 239.405 31.3236 240.53 31.5424L244.159 32.2881C245.555 32.5914 246.642 33.1515 247.423 33.9686C248.204 34.7856 248.594 35.8429 248.594 37.1405C248.594 38.7761 247.981 40.0737 246.754 41.0332C245.528 41.9928 243.899 42.4692 241.867 42.4626C240.003 42.4626 238.411 42.0284 237.092 41.16C236.454 40.7522 235.917 40.2046 235.522 39.5585C235.127 38.9125 234.885 38.185 234.812 37.4313L238.417 36.7005C238.853 38.535 240.112 39.4531 242.195 39.4547C243.152 39.4547 243.893 39.2534 244.413 38.8482C244.657 38.673 244.856 38.4415 244.993 38.1733C245.129 37.905 245.199 37.6079 245.196 37.307C245.208 37.0891 245.175 36.8711 245.099 36.6667C245.022 36.4622 244.905 36.2757 244.753 36.1188C244.46 35.8304 243.95 35.6216 243.229 35.46L239.65 34.7789C236.695 34.1558 235.217 32.5384 235.215 29.9266C235.195 29.2126 235.342 28.5037 235.644 27.8564C235.946 27.2091 236.395 26.6412 236.955 26.1979C238.115 25.2467 239.677 24.7702 241.641 24.7686C243.361 24.7686 244.825 25.2069 246.033 26.0836Z" fill="#110C11"/>
<path d="M25.8672 24.8232H30.7468L28.3207 18.5117L25.8672 24.8232Z" fill="#110C11"/>
<path d="M0 0V46H68.1113V0H0ZM17.6915 21.465L11.4124 24.008L17.6915 26.5311V30.1877L7.07711 25.6461V22.345L17.6915 17.8034V21.465ZM33.4765 31.8483L32.0248 28.0723H24.6096L23.133 31.8483H19.4614L26.72 14.1542H29.8969L37.1555 31.8483H33.4765ZM42.674 31.8483H38.9229L46.3058 14.1691H49.5373L42.674 31.8483ZM61.0466 25.6337L50.4322 30.1753V26.5311L56.7114 24.008L50.4248 21.465V17.8034L61.0392 22.345L61.0466 25.6337Z" fill="#110C11"/>
</g>
<defs>
<clipPath id="clip0_1161_8351">
<rect width="248.581" height="46" fill="white"/>
</clipPath>
</defs>
</svg>
