<svg width="145" height="125" viewBox="0 0 145 125" fill="none" xmlns="http://www.w3.org/2000/svg">
<path d="M100 75.0504V119.169C100 119.751 99.5319 120.219 98.9499 120.219H47.0501C46.4681 120.219 46 119.751 46 119.169V75.0504C46 74.4684 46.4681 74.0002 47.0501 74.0002H98.9499C99.5192 73.9876 100 74.4684 100 75.0504Z" fill="#312E2E" stroke="white" stroke-miterlimit="10" stroke-linecap="round" stroke-linejoin="round"/>
<path d="M96.8125 116.557V109.522L56.6541 109.522V116.557H96.8125Z" fill="#312E2E" stroke="white" stroke-miterlimit="10" stroke-linecap="round" stroke-linejoin="round"/>
<path d="M92.7757 114.247C93.5234 114.247 94.1295 113.641 94.1295 112.893C94.1295 112.146 93.5234 111.54 92.7757 111.54C92.028 111.54 91.4219 112.146 91.4219 112.893C91.4219 113.641 92.028 114.247 92.7757 114.247Z" fill="#312E2E" stroke="white" stroke-miterlimit="10" stroke-linecap="round" stroke-linejoin="round"/>
<path d="M56.6562 116.552V109.518H49.6216V116.552H56.6562Z" fill="white" stroke="white" stroke-miterlimit="10" stroke-linecap="round" stroke-linejoin="round"/>
<path d="M96.8125 105.963V98.9285L56.6541 98.9285V105.963H96.8125Z" fill="#312E2E" stroke="white" stroke-miterlimit="10" stroke-linecap="round" stroke-linejoin="round"/>
<path d="M92.7757 103.657C93.5234 103.657 94.1295 103.051 94.1295 102.304C94.1295 101.556 93.5234 100.95 92.7757 100.95C92.028 100.95 91.4219 101.556 91.4219 102.304C91.4219 103.051 92.028 103.657 92.7757 103.657Z" fill="#312E2E" stroke="white" stroke-miterlimit="10" stroke-linecap="round" stroke-linejoin="round"/>
<path d="M56.6562 105.959V98.9241H49.6216V105.959H56.6562Z" fill="white" stroke="white" stroke-miterlimit="10" stroke-linecap="round" stroke-linejoin="round"/>
<path d="M96.8125 95.3696V88.335L56.6541 88.335V95.3696H96.8125Z" fill="#312E2E" stroke="white" stroke-miterlimit="10" stroke-linecap="round" stroke-linejoin="round"/>
<path d="M92.7757 93.0548C93.5234 93.0548 94.1295 92.4486 94.1295 91.701C94.1295 90.9533 93.5234 90.3472 92.7757 90.3472C92.028 90.3472 91.4219 90.9533 91.4219 91.701C91.4219 92.4486 92.028 93.0548 92.7757 93.0548Z" fill="#312E2E" stroke="white" stroke-miterlimit="10" stroke-linecap="round" stroke-linejoin="round"/>
<path d="M56.6562 95.3652V88.3306H49.6216V95.3652H56.6562Z" fill="white" stroke="white" stroke-miterlimit="10" stroke-linecap="round" stroke-linejoin="round"/>
<path d="M96.8281 84.7759V77.7412L56.6697 77.7412V84.7759H96.8281Z" fill="#312E2E" stroke="white" stroke-miterlimit="10" stroke-linecap="round" stroke-linejoin="round"/>
<path d="M92.7835 82.4649C93.5312 82.4649 94.1373 81.8588 94.1373 81.1111C94.1373 80.3634 93.5312 79.7573 92.7835 79.7573C92.0358 79.7573 91.4297 80.3634 91.4297 81.1111C91.4297 81.8588 92.0358 82.4649 92.7835 82.4649Z" fill="#312E2E" stroke="white" stroke-miterlimit="10" stroke-linecap="round" stroke-linejoin="round"/>
<path d="M56.6641 84.7715V77.7368H49.6294V84.7715H56.6641Z" fill="white" stroke="white" stroke-miterlimit="10" stroke-linecap="round" stroke-linejoin="round"/>
<path d="M3.51242 13H81.9323C82.7675 13 83.4447 13.6772 83.4447 14.5124V96.0474C83.4447 96.8826 82.7675 97.5598 81.9323 97.5598H3.51242C2.6772 97.5598 2 96.8826 2 96.0474V14.5124C2 13.6772 2.6772 13 3.51242 13Z" fill="white" stroke="#312E2E" stroke-miterlimit="10" stroke-linecap="round" stroke-linejoin="round"/>
<path d="M16.3801 92.4358H8.00536C7.50875 92.4358 7.125 92.0295 7.125 91.5555V83.6548C7.125 83.1582 7.53132 82.7744 8.00536 82.7744H16.3801C16.8767 82.7744 17.2604 83.1807 17.2604 83.6548V91.5555C17.2604 92.0521 16.8767 92.4358 16.3801 92.4358Z" fill="#312E2E" stroke="#312E2E" stroke-miterlimit="10" stroke-linecap="round" stroke-linejoin="round"/>
<path d="M31.6613 92.4358H23.2866C22.79 92.4358 22.4062 92.0295 22.4062 91.5555V83.6548C22.4062 83.1582 22.8126 82.7744 23.2866 82.7744H31.6613C32.1579 82.7744 32.5417 83.1807 32.5417 83.6548V91.5555C32.5417 92.0521 32.1354 92.4358 31.6613 92.4358Z" fill="#312E2E" stroke="#312E2E" stroke-miterlimit="10" stroke-linecap="round" stroke-linejoin="round"/>
<path d="M46.927 92.4358H38.5522C38.0556 92.4358 37.6719 92.0295 37.6719 91.5555V83.6548C37.6719 83.1582 38.0782 82.7744 38.5522 82.7744H46.927C47.4236 82.7744 47.8073 83.1807 47.8073 83.6548V91.5555C47.8073 92.0521 47.4236 92.4358 46.927 92.4358Z" fill="#312E2E" stroke="#312E2E" stroke-miterlimit="10" stroke-linecap="round" stroke-linejoin="round"/>
<path d="M62.177 92.4358H53.8022C53.3056 92.4358 52.9219 92.0295 52.9219 91.5555V83.6548C52.9219 83.1582 53.3282 82.7744 53.8022 82.7744H62.177C62.6736 82.7744 63.0573 83.1807 63.0573 83.6548V91.5555C63.0573 92.0521 62.6736 92.4358 62.177 92.4358Z" fill="#312E2E" stroke="#312E2E" stroke-miterlimit="10" stroke-linecap="round" stroke-linejoin="round"/>
<path d="M77.466 92.4358H69.0913C68.5947 92.4358 68.2109 92.0295 68.2109 91.5555V83.6548C68.2109 83.1582 68.6172 82.7744 69.0913 82.7744H77.466C77.9626 82.7744 78.3464 83.1807 78.3464 83.6548V91.5555C78.3464 92.0521 77.9401 92.4358 77.466 92.4358Z" fill="#312E2E" stroke="#312E2E" stroke-miterlimit="10" stroke-linecap="round" stroke-linejoin="round"/>
<path d="M7.125 75.2354H78.3439" stroke="#312E2E" stroke-miterlimit="10" stroke-linecap="round" stroke-linejoin="round"/>
<path d="M7.125 69.7051H78.3439" stroke="#312E2E" stroke-miterlimit="10" stroke-linecap="round" stroke-linejoin="round"/>
<path d="M58 67.7637V71.6237" stroke="#312E2E" stroke-miterlimit="10" stroke-linecap="round" stroke-linejoin="round"/>
<path d="M27.4688 73.3164V77.1539" stroke="#312E2E" stroke-miterlimit="10" stroke-linecap="round" stroke-linejoin="round"/>
<path d="M78.0053 18.2822H7.71191C7.39588 18.2822 7.125 18.5531 7.125 18.8691V61.6682C7.125 61.9842 7.39588 62.2551 7.71191 62.2551H78.0053C78.3214 62.2551 78.5923 61.9842 78.5923 61.6682V18.8917C78.5923 18.5531 78.3439 18.2822 78.0053 18.2822Z" fill="white" stroke="#312E2E" stroke-miterlimit="10" stroke-linecap="round" stroke-linejoin="round"/>
<g filter="url(#filter0_b_825_13756)">
<g filter="url(#filter1_b_825_13756)">
<path fill-rule="evenodd" clip-rule="evenodd" d="M88.0094 5.87308C88.0922 5.84746 88.1359 5.83392 88.137 5.83356C88.2215 5.80887 88.3566 5.78158 88.5074 5.77118V50L58 44.7235C58 44.7235 61.6766 16.289 61.8157 15.287C62.0002 13.9627 62.0444 13.9185 63.4493 13.478C63.4909 13.465 65.439 12.8606 68.2228 11.999C68.5205 9.8715 69.5667 7.1215 70.9456 4.93293C72.9028 1.82293 75.3175 0.0723272 77.7426 0.00214745C78.998 -0.034242 80.0481 0.392032 80.8656 1.26668C80.9254 1.32906 80.9813 1.39534 81.0358 1.46162C81.1658 1.44993 81.2958 1.43824 81.4257 1.43824H81.4322C83.3089 1.44084 84.8632 2.51302 85.9237 4.53654C86.2525 5.16426 86.4839 5.78938 86.6398 6.29754C87.3171 6.0874 87.7947 5.93956 88.0094 5.87308ZM75.9478 9.60898C77.7166 9.06184 79.4789 8.51599 81.093 8.01564C81.1086 6.67572 80.9644 4.6925 80.2925 3.29411C79.579 3.58912 78.9759 4.10506 78.5458 4.56643C77.3878 5.80887 76.4456 7.70503 75.9478 9.60898ZM79.2476 1.99837C78.8382 1.72935 78.3586 1.60459 77.7894 1.61629C74.0465 1.72416 70.7818 7.56987 69.9487 11.4648C70.8566 11.1834 71.8191 10.8853 72.8093 10.5787C73.2593 10.4394 73.715 10.2982 74.1738 10.1561C74.6443 7.68163 75.8244 5.11617 77.3644 3.46435C77.9583 2.82753 78.5926 2.33887 79.2476 1.99837ZM75.5791 26.3979C74.2419 25.5405 73.1365 24.8317 73.0717 23.8061C73.0406 23.3304 73.073 21.433 76.0817 21.2406C78.1338 21.112 79.8636 21.8995 79.8636 21.8995L81.4153 16.0967C81.4153 16.0967 80.0767 15.43 77.4632 15.595C70.6791 16.0239 67.6055 20.7676 67.9005 25.4488C68.0984 28.5733 69.9393 29.88 71.5528 31.0252C72.8118 31.9188 73.9323 32.714 74.0257 34.1979C74.0764 35.0166 73.5682 36.1733 72.1464 36.263C69.9695 36.4007 67.2494 34.3486 67.2494 34.3486L66.2097 38.7739C66.2097 38.7739 68.9116 41.6694 73.8203 41.3601C77.9102 41.1015 80.7486 37.8303 80.4471 33.0477C80.2152 29.3706 77.6257 27.7102 75.5791 26.3979ZM81.9677 3.10305C82.5395 4.57942 82.6864 6.28714 82.7046 7.51529C83.5805 7.24496 84.3876 6.99543 85.0959 6.77449C84.7138 5.53335 83.8079 3.45135 81.9677 3.10305ZM102.171 46.7327L89.5156 49.8791V6.25195C90.3318 7.05122 92.5048 9.16051 92.5048 9.16051C92.5048 9.16051 96.0683 9.2138 96.2503 9.2294C96.4322 9.24499 96.6532 9.38535 96.6883 9.63748C96.722 9.89091 102.171 46.7327 102.171 46.7327Z" fill="url(#paint0_linear_825_13756)" fill-opacity="0.8"/>
</g>
</g>
<defs>
<filter id="filter0_b_825_13756" x="54" y="-4" width="52.1719" height="58" filterUnits="userSpaceOnUse" color-interpolation-filters="sRGB">
<feFlood flood-opacity="0" result="BackgroundImageFix"/>
<feGaussianBlur in="BackgroundImage" stdDeviation="2"/>
<feComposite in2="SourceAlpha" operator="in" result="effect1_backgroundBlur_825_13756"/>
<feBlend mode="normal" in="SourceGraphic" in2="effect1_backgroundBlur_825_13756" result="shape"/>
</filter>
<filter id="filter1_b_825_13756" x="54.1599" y="-3.84007" width="51.852" height="57.6801" filterUnits="userSpaceOnUse" color-interpolation-filters="sRGB">
<feFlood flood-opacity="0" result="BackgroundImageFix"/>
<feGaussianBlur in="BackgroundImage" stdDeviation="1.92003"/>
<feComposite in2="SourceAlpha" operator="in" result="effect1_backgroundBlur_825_13756"/>
<feBlend mode="normal" in="SourceGraphic" in2="effect1_backgroundBlur_825_13756" result="shape"/>
</filter>
<linearGradient id="paint0_linear_825_13756" x1="58" y1="0" x2="122.514" y2="41.9746" gradientUnits="userSpaceOnUse">
<stop stop-color="#4744FD"/>
<stop offset="1" stop-color="#CA6394"/>
</linearGradient>
</defs>
</svg>
